<?xml version="1.0" standalone="no"?>
<!DOCTYPE svg PUBLIC "-//W3C//DTD SVG 20010904//EN"
 "http://www.w3.org/TR/2001/REC-SVG-20010904/DTD/svg10.dtd">
<svg version="1.0" xmlns="http://www.w3.org/2000/svg"
 width="246.000000pt" height="345.000000pt" viewBox="0 0 246.000000 345.000000"
 preserveAspectRatio="xMidYMid meet">

<g transform="translate(0.000000,345.000000) scale(0.100000,-0.100000)"
fill="#000000" stroke="none">
<path d="M17 3443 c-4 -3 -7 -780 -7 -1725 l0 -1718 40 0 40 0 0 1725 0 1725
-33 0 c-19 0 -37 -3 -40 -7z"/>
<path d="M2243 3208 l-203 -203 0 -115 0 -114 198 -198 c108 -109 200 -198
205 -198 4 0 7 46 7 103 l0 102 -150 151 -150 150 150 150 151 150 -3 112 -3
112 -202 -202z"/>
<path d="M327 3189 c-28 -17 -46 -67 -36 -102 12 -43 36 -57 97 -55 l53 2 -3
41 c-2 29 -8 41 -21 43 -14 3 -17 -2 -15 -25 3 -24 -1 -28 -25 -31 -38 -5 -57
14 -57 53 0 42 21 59 65 52 40 -6 55 7 26 22 -25 14 -61 13 -84 0z"/>
<path d="M630 3185 c0 -8 5 -15 10 -15 6 0 10 7 10 15 0 8 -4 15 -10 15 -5 0
-10 -7 -10 -15z"/>
<path d="M467 3108 c9 -70 16 -76 78 -76 52 1 68 9 45 23 -5 3 -10 26 -10 51
0 32 -4 44 -15 44 -11 0 -15 -11 -15 -39 0 -39 -20 -68 -40 -56 -5 3 -10 26
-10 51 0 37 -3 44 -19 44 -17 0 -18 -5 -14 -42z"/>
<path d="M618 3098 c5 -60 13 -74 38 -64 13 5 15 9 6 18 -7 7 -12 31 -12 55 0
35 -3 43 -19 43 -16 0 -17 -6 -13 -52z"/>
<path d="M690 3135 c0 -13 6 -15 30 -10 40 9 38 -8 -2 -26 -38 -16 -50 -54
-21 -62 30 -8 103 -7 103 2 0 4 -4 11 -9 17 -5 5 -11 27 -13 49 -3 39 -4 40
-45 43 -34 3 -43 0 -43 -13z m58 -62 c-4 -22 -38 -30 -38 -10 0 14 13 24 33
26 5 1 7 -7 5 -16z"/>
<path d="M298 2918 c2 -40 5 -79 7 -85 8 -24 24 -13 27 19 2 24 9 34 26 38 31
7 29 24 -3 28 -17 2 -25 9 -25 24 0 18 4 19 36 14 31 -6 35 -5 32 11 -2 14
-14 19 -53 21 l-51 3 4 -73z"/>
<path d="M980 2982 c0 -4 4 -12 9 -17 6 -6 11 -39 13 -75 l3 -65 45 0 c34 0
45 4 48 17 3 14 -3 16 -32 11 -32 -5 -36 -3 -36 16 0 16 6 21 25 21 16 0 25 6
25 15 0 9 -9 15 -25 15 -19 0 -25 5 -25 21 0 19 4 20 36 15 31 -6 35 -5 32 11
-3 14 -15 19 -61 21 -31 2 -57 -1 -57 -6z"/>
<path d="M1340 2981 c0 -6 5 -13 10 -16 19 -12 10 -25 -14 -19 -51 13 -89 -72
-48 -109 11 -10 32 -15 62 -13 l45 2 -4 75 c-1 41 -5 77 -8 82 -6 10 -43 9
-43 -2z m16 -87 c8 -30 -6 -47 -32 -42 -35 6 -30 68 5 68 14 0 23 -9 27 -26z"/>
<path d="M811 2958 c-10 -27 -3 -98 11 -115 12 -15 48 -18 48 -4 0 5 -7 11
-15 15 -9 3 -15 18 -15 36 0 20 5 30 15 30 8 0 15 5 15 10 0 6 -7 10 -15 10
-8 0 -15 9 -15 20 0 27 -19 25 -29 -2z"/>
<path d="M472 2941 c-7 -4 -24 -6 -37 -4 -22 5 -23 3 -18 -44 2 -26 6 -54 9
-61 7 -24 24 -1 24 33 0 23 7 39 21 49 23 15 23 41 1 27z"/>
<path d="M533 2933 c-35 -30 -38 -59 -9 -88 29 -29 52 -31 84 -9 25 17 30 60
10 87 -21 26 -61 31 -85 10z m62 -48 c0 -25 -4 -31 -27 -33 -19 -2 -28 2 -33
18 -8 27 12 52 39 48 16 -2 21 -10 21 -33z"/>
<path d="M716 2943 c-4 -4 -23 -6 -43 -5 -29 2 -34 0 -25 -10 6 -7 12 -34 14
-58 4 -58 22 -58 28 0 4 37 9 46 28 48 20 3 22 -1 22 -41 0 -40 10 -57 35 -57
2 0 1 24 -2 53 -6 58 -34 93 -57 70z"/>
<path d="M1186 2943 c-4 -4 -22 -6 -41 -5 -19 2 -35 -2 -35 -8 0 -5 4 -10 9
-10 6 0 11 -21 13 -47 4 -61 21 -62 28 -3 4 37 9 46 27 48 20 3 22 -2 25 -45
2 -36 7 -49 20 -51 15 -3 16 3 11 50 -6 59 -34 94 -57 71z"/>
<path d="M890 2890 c0 -5 16 -10 35 -10 19 0 35 5 35 10 0 6 -16 10 -35 10
-19 0 -35 -4 -35 -10z"/>
<path d="M1640 2230 l0 -30 -417 0 c-230 0 -428 3 -440 6 -27 7 -30 31 -5 37
9 3 5 4 -10 4 -15 -1 -25 -4 -22 -8 2 -4 -3 -10 -12 -13 -9 -4 -14 -13 -10
-21 3 -9 0 -15 -9 -15 -13 0 -15 -29 -15 -185 0 -102 2 -185 5 -185 3 0 16 7
29 15 21 14 25 14 39 0 11 -11 37 -15 96 -15 47 0 81 -4 81 -10 0 -6 -36 -10
-89 -10 l-89 0 -17 -45 c-10 -25 -24 -50 -32 -56 -10 -9 -12 -9 -8 3 6 15 -50
62 -64 54 -5 -3 -54 -65 -109 -138 -55 -73 -166 -218 -246 -323 l-146 -190 33
-28 32 -28 28 33 c16 18 83 105 150 193 133 177 284 373 301 392 8 9 10 -82 8
-327 l-3 -340 476 0 475 0 0 296 0 296 -120 125 -120 126 78 73 77 72 43 -41
42 -41 0 177 c0 97 -2 177 -5 177 -3 0 -5 -13 -5 -30z m-780 -100 c0 -5 -18
-10 -40 -10 -22 0 -40 5 -40 10 0 6 18 10 40 10 22 0 40 -4 40 -10z m13 -37
c-18 -2 -48 -2 -65 0 -18 2 -4 4 32 4 36 0 50 -2 33 -4z m150 -80 c-13 -2 -33
-2 -45 0 -13 2 -3 4 22 4 25 0 35 -2 23 -4z m187 -3 c0 -5 -25 -10 -55 -10
-30 0 -55 5 -55 10 0 6 25 10 55 10 30 0 55 -4 55 -10z m130 0 c0 -5 -25 -10
-55 -10 -30 0 -55 5 -55 10 0 6 25 10 55 10 30 0 55 -4 55 -10z m-350 -40 c0
-6 -33 -10 -80 -10 -47 0 -80 4 -80 10 0 6 33 10 80 10 47 0 80 -4 80 -10z
m130 0 c0 -5 -20 -10 -45 -10 -25 0 -45 5 -45 10 0 6 20 10 45 10 25 0 45 -4
45 -10z m-147 -37 c-7 -2 -21 -2 -30 0 -10 3 -4 5 12 5 17 0 24 -2 18 -5z
m110 0 c-7 -2 -19 -2 -25 0 -7 3 -2 5 12 5 14 0 19 -2 13 -5z m137 -3 c0 -5
-20 -10 -45 -10 -25 0 -45 5 -45 10 0 6 20 10 45 10 25 0 45 -4 45 -10z m-30
-40 c0 -6 -54 -10 -141 -10 -91 0 -138 4 -134 10 4 6 62 10 141 10 83 0 134
-4 134 -10z m170 0 c0 -6 -30 -10 -70 -10 -40 0 -70 4 -70 10 0 6 30 10 70 10
40 0 70 -4 70 -10z m-407 -117 c-24 -2 -62 -2 -85 0 -24 2 -5 4 42 4 47 0 66
-2 43 -4z m267 -78 c0 -13 -20 -15 -137 -13 -98 2 -138 6 -141 16 -3 9 29 12
137 12 120 0 141 -2 141 -15z m-342 -2 c-15 -2 -42 -2 -60 0 -18 2 -6 4 27 4
33 0 48 -2 33 -4z m137 -43 c-3 -5 -46 -10 -95 -10 -49 0 -92 5 -95 10 -4 6
30 10 95 10 65 0 99 -4 95 -10z m-57 -37 c-15 -2 -42 -2 -60 0 -18 2 -6 4 27
4 33 0 48 -2 33 -4z m172 -3 c0 -6 -27 -10 -60 -10 -33 0 -60 4 -60 10 0 6 27
10 60 10 33 0 60 -4 60 -10z m-53 -37 c-20 -2 -52 -2 -70 0 -17 2 0 4 38 4 39
0 53 -2 32 -4z m278 -3 c-3 -6 -52 -10 -111 -10 -63 0 -104 4 -104 10 0 6 44
10 111 10 71 0 108 -4 104 -10z m-175 -30 c0 -6 -40 -10 -97 -11 -54 0 -108
-2 -120 -3 -14 -2 -23 3 -23 11 0 10 27 13 120 13 73 0 120 -4 120 -10z m-312
-87 c-15 -2 -42 -2 -60 0 -18 2 -6 4 27 4 33 0 48 -2 33 -4z m107 -43 c-3 -5
-37 -10 -75 -10 -38 0 -72 5 -75 10 -4 6 23 10 75 10 52 0 79 -4 75 -10z m425
0 c0 -6 -70 -10 -189 -10 -116 0 -192 4 -196 10 -4 7 62 10 189 10 124 0 196
-4 196 -10z m-422 -37 c-21 -2 -55 -2 -75 0 -21 2 -4 4 37 4 41 0 58 -2 38 -4z
m159 0 c-20 -2 -52 -2 -70 0 -17 2 0 4 38 4 39 0 53 -2 32 -4z m203 -3 c0 -6
-30 -10 -70 -10 -40 0 -70 4 -70 10 0 6 30 10 70 10 40 0 70 -4 70 -10z m-240
-160 c0 -6 -38 -10 -94 -10 -53 0 -98 4 -101 10 -4 6 30 10 94 10 61 0 101 -4
101 -10z m140 0 c0 -5 -22 -10 -49 -10 -28 0 -53 5 -56 10 -4 6 15 10 49 10
31 0 56 -4 56 -10z m220 0 c0 -6 -40 -10 -100 -10 -60 0 -100 4 -100 10 0 6
40 10 100 10 60 0 100 -4 100 -10z m-325 -40 c-3 -5 -46 -10 -95 -10 -49 0
-92 5 -95 10 -4 6 30 10 95 10 65 0 99 -4 95 -10z m135 0 c0 -5 -22 -10 -49
-10 -28 0 -53 5 -56 10 -4 6 15 10 49 10 31 0 56 -4 56 -10z m130 0 c0 -5 -22
-10 -50 -10 -27 0 -50 5 -50 10 0 6 23 10 50 10 28 0 50 -4 50 -10z m-437 -77
c-35 -2 -91 -2 -125 0 -35 2 -7 3 62 3 69 0 97 -1 63 -3z m-28 -43 c-3 -5 -28
-10 -55 -10 -27 0 -52 5 -55 10 -4 6 17 10 55 10 38 0 59 -4 55 -10z m235 0
c0 -6 -42 -10 -105 -10 -63 0 -105 4 -105 10 0 6 42 10 105 10 63 0 105 -4
105 -10z"/>
<path d="M1018 2243 c7 -3 16 -2 19 1 4 3 -2 6 -13 5 -11 0 -14 -3 -6 -6z"/>
<path d="M1248 2243 c7 -3 16 -2 19 1 4 3 -2 6 -13 5 -11 0 -14 -3 -6 -6z"/>
<path d="M1478 2243 c7 -3 16 -2 19 1 4 3 -2 6 -13 5 -11 0 -14 -3 -6 -6z"/>
<path d="M1540 1840 c0 -13 7 -20 20 -20 13 0 20 7 20 20 0 13 -7 20 -20 20
-13 0 -20 -7 -20 -20z"/>
<path d="M1890 890 c0 -5 5 -10 11 -10 5 0 7 5 4 10 -3 6 -8 10 -11 10 -2 0
-4 -4 -4 -10z"/>
<path d="M1877 786 c-4 -10 -1 -13 8 -9 8 3 12 9 9 14 -7 12 -11 11 -17 -5z"/>
<path d="M790 215 c0 -30 5 -55 10 -55 6 0 10 25 10 55 0 30 -4 55 -10 55 -5
0 -10 -25 -10 -55z"/>
<path d="M550 233 c0 -13 5 -23 10 -23 13 0 13 11 0 30 -8 12 -10 11 -10 -7z"/>
<path d="M436 223 c-6 -14 -5 -15 5 -6 7 7 10 15 7 18 -3 3 -9 -2 -12 -12z"/>
<path d="M501 224 c0 -11 3 -14 6 -6 3 7 2 16 -1 19 -3 4 -6 -2 -5 -13z"/>
<path d="M730 231 c0 -6 6 -8 14 -5 8 3 17 0 21 -6 4 -7 -2 -14 -14 -17 -21
-5 -29 -37 -12 -47 23 -14 42 7 39 43 -2 29 -8 37 -25 39 -13 2 -23 -1 -23 -7z
m38 -52 c-2 -6 -8 -10 -13 -10 -5 0 -11 4 -13 10 -2 6 4 11 13 11 9 0 15 -5
13 -11z"/>
<path d="M821 204 c-1 -30 4 -44 15 -48 26 -10 34 2 33 47 l-2 42 -6 -38 c-8
-48 -24 -48 -32 0 l-6 38 -2 -41z"/>
<path d="M892 193 c1 -48 1 -48 5 -8 3 22 10 43 16 47 8 5 6 8 -5 8 -15 0 -18
-8 -16 -47z"/>
<path d="M934 229 c-4 -8 0 -9 15 -4 27 8 28 -11 1 -25 -24 -13 -26 -36 -4
-44 25 -10 34 2 34 45 0 32 -3 39 -19 39 -11 0 -23 -5 -27 -11z m36 -47 c0
-13 -12 -22 -22 -16 -10 6 -1 24 13 24 5 0 9 -4 9 -8z"/>
<path d="M480 176 c0 -9 5 -16 10 -16 6 0 10 4 10 9 0 6 -4 13 -10 16 -5 3
-10 -1 -10 -9z"/>
<path d="M447 166 c-4 -10 -1 -13 9 -9 7 3 14 9 14 14 0 14 -17 10 -23 -5z"/>
<path d="M530 164 c0 -8 5 -12 10 -9 6 3 10 10 10 16 0 5 -4 9 -10 9 -5 0 -10
-7 -10 -16z"/>
</g>
</svg>
